<svg width="22" height="20" viewBox="0 0 22 20" fill="none" xmlns="http://www.w3.org/2000/svg">
<path d="M16.21 7.49001L11.83 0.93001C11.64 0.65001 11.32 0.51001 11 0.51001C10.68 0.51001 10.36 0.65001 10.17 0.94001L5.79 7.49001H1C0.45 7.49001 0 7.94001 0 8.49001C0 8.58001 0.00999996 8.67001 0.04 8.76001L2.58 18.03C2.81 18.87 3.58 19.49 4.5 19.49H17.5C18.42 19.49 19.19 18.87 19.43 18.03L21.97 8.76001L22 8.49001C22 7.94001 21.55 7.49001 21 7.49001H16.21ZM8 7.49001L11 3.09001L14 7.49001H8ZM11 15.49C9.9 15.49 9 14.59 9 13.49C9 12.39 9.9 11.49 11 11.49C12.1 11.49 13 12.39 13 13.49C13 14.59 12.1 15.49 11 15.49Z" fill="black"/>
</svg>
