<svg width="6" height="25" viewBox="0 0 6 25" fill="none" xmlns="http://www.w3.org/2000/svg">
<path d="M6 3.48999C6 1.83249 4.6575 0.48999 3 0.48999C1.3425 0.48999 0 1.83249 0 3.48999C0 5.14749 1.3425 6.48999 3 6.48999C4.6575 6.48999 6 5.14749 6 3.48999ZM6 21.49C6 19.8325 4.6575 18.49 3 18.49C1.3425 18.49 0 19.8325 0 21.49C0 23.1475 1.3425 24.49 3 24.49C4.6575 24.49 6 23.1475 6 21.49ZM6 12.49C6 10.8325 4.6575 9.48999 3 9.48999C1.3425 9.48999 0 10.8325 0 12.49C0 14.1475 1.3425 15.49 3 15.49C4.6575 15.49 6 14.1475 6 12.49Z" fill="black"/>
</svg>
